<svg width="42" height="80" viewBox="0 0 42 80" fill="none" xmlns="http://www.w3.org/2000/svg">
<path d="M37.612 28.0002H28V20.0002C28 15.8722 28.336 13.2721 34.252 13.2721H37.724C39.932 13.2721 41.724 11.4801 41.724 9.27215V4.25615C41.724 2.16415 40.12 0.37615 38.032 0.23615C35.616 0.0721499 33.196 -0.00385013 30.772 0.000149875C19.92 0.000149875 12 6.62815 12 18.7962V28.0002H4C1.792 28.0002 0 29.7921 0 32.0001V40.0001C0 42.2081 1.792 44.0001 4 44.0001L12 43.9961V76.0002C12 78.2082 13.792 80.0002 16 80.0002H24C26.208 80.0002 28 78.2082 28 76.0002V43.9881L36.696 43.9841C38.728 43.9841 40.436 42.4601 40.668 40.4401L41.584 32.4562C41.86 30.0842 40.004 28.0002 37.612 28.0002Z" fill="white"/>
</svg>
